<svg xmlns="http://www.w3.org/2000/svg" width="1024" height="1024" viewBox="0 0 1024 1024">
  <defs>
    <linearGradient id="background" x1="150" y1="110" x2="870" y2="920" gradientUnits="userSpaceOnUse">
      <stop offset="0" stop-color="#202536"/>
      <stop offset="1" stop-color="#0d1020"/>
    </linearGradient>
    <linearGradient id="accent" x1="250" y1="300" x2="760" y2="760" gradientUnits="userSpaceOnUse">
      <stop offset="0" stop-color="#ff8b65"/>
      <stop offset="1" stop-color="#d650b5"/>
    </linearGradient>
    <filter id="shadow" x="-20%" y="-20%" width="140%" height="140%">
      <feDropShadow dx="0" dy="28" stdDeviation="30" flood-color="#000000" flood-opacity="0.34"/>
    </filter>
  </defs>

  <rect x="72" y="72" width="880" height="880" rx="210" fill="url(#background)"/>
  <g filter="url(#shadow)">
    <rect x="190" y="206" width="644" height="612" rx="86" fill="#171b2b" stroke="#383f58" stroke-width="8"/>
    <rect x="190" y="206" width="644" height="116" rx="86" fill="#292f43"/>
    <rect x="190" y="272" width="644" height="50" fill="#292f43"/>
    <circle cx="266" cy="264" r="18" fill="#ff765f"/>
    <circle cx="326" cy="264" r="18" fill="#ffc35a"/>
    <circle cx="386" cy="264" r="18" fill="#56d58a"/>

    <rect x="224" y="358" width="94" height="392" rx="36" fill="#22283b"/>
    <rect x="240" y="386" width="62" height="82" rx="22" fill="#ff8b65"/>
    <rect x="240" y="488" width="62" height="82" rx="22" fill="#7667e8"/>
    <rect x="240" y="590" width="62" height="82" rx="22" fill="#47c3a2"/>

    <path d="M398 466L482 536L398 606" fill="none" stroke="url(#accent)" stroke-width="44" stroke-linecap="round" stroke-linejoin="round"/>
    <path d="M538 620H696" fill="none" stroke="#f3f4ff" stroke-width="42" stroke-linecap="round"/>
  </g>
</svg>

